<?xml version="1.0" encoding="UTF-8" standalone="no"?>
<svg width="40px" height="40px" viewBox="0 0 40 40" version="1.1" xmlns="http://www.w3.org/2000/svg" xmlns:xlink="http://www.w3.org/1999/xlink">
    <!-- Generator: Sketch 42 (36781) - http://www.bohemiancoding.com/sketch -->
    <title>Clear</title>
    <desc>Created with Sketch.</desc>
    <defs></defs>
    <g id="Page-1" stroke="none" stroke-width="1" fill="none" fill-rule="evenodd">
        <path d="M23.0304576,20 L28.075926,14.9545316 C28.9225464,14.1079113 28.9180581,12.7556174 28.0812204,11.9187796 C27.2385483,11.0761076 25.8852301,11.0843122 25.0454684,11.924074 L20,16.9695424 L14.9545316,11.924074 C14.1079113,11.0774536 12.7556174,11.0819419 11.9187796,11.9187796 C11.0761076,12.7614517 11.0843122,14.1147699 11.924074,14.9545316 L16.9695424,20 L11.924074,25.0454684 C11.0774536,25.8920887 11.0819419,27.2443826 11.9187796,28.0812204 C12.7614517,28.9238924 14.1147699,28.9156878 14.9545316,28.075926 L20,23.0304576 L25.0454684,28.075926 C25.8920887,28.9225464 27.2443826,28.9180581 28.0812204,28.0812204 C28.9238924,27.2385483 28.9156878,25.8852301 28.075926,25.0454684 L23.0304576,20 Z M20,40 C8.954305,40 0,31.045695 0,20 C0,8.954305 8.954305,0 20,0 C31.045695,0 40,8.954305 40,20 C40,31.045695 31.045695,40 20,40 Z" id="Clear" fill="#8F8E94"></path>
    </g>
</svg>