<?xml version="1.0" encoding="UTF-8" standalone="no"?>
<svg width="100px" height="41px" viewBox="0 0 100 41" version="1.1" xmlns="http://www.w3.org/2000/svg" xmlns:xlink="http://www.w3.org/1999/xlink">
    <!-- Generator: Sketch 39.1 (31720) - http://www.bohemiancoding.com/sketch -->
    <title>nudge-logo</title>
    <desc>Created with Sketch.</desc>
    <defs>
        <polygon id="path-1" points="0.102874561 0.129843517 0.102874561 5.59600099 3.992549 5.59600099 3.992549 0.129843517 0.102874561 0.129843517"></polygon>
        <polygon id="path-3" points="16.3545151 18.3640741 16.3545151 0.155430328 0.213496465 0.155430328 0.213496465 18.3640741 16.3545151 18.3640741"></polygon>
        <polygon id="path-5" points="0.102874561 0.0707774466 0.102874561 27.5594138 25.5062868 27.5594138 25.5062868 0.0707774466 0.102874561 0.0707774466"></polygon>
    </defs>
    <g id="Landing" stroke="none" stroke-width="1" fill="none" fill-rule="evenodd">
        <g transform="translate(-304.000000, -48.000000)" id="nudge-logo">
            <g transform="translate(304.000000, 48.000000)">
                <g id="Group-3" transform="translate(0.000000, 34.295492)">
                    <mask id="mask-2" fill="white">
                        <use xlink:href="#path-1"></use>
                    </mask>
                    <g id="Clip-2"></g>
                    <path d="M2.2195504,2.78527074 C2.73011304,2.78527074 3.1759028,2.35500497 3.1759028,1.81653626 C3.1759028,1.30989195 2.73011304,0.887264034 2.2195504,0.887264034 L0.82375852,0.887264034 L0.82375852,2.78527074 L2.2195504,2.78527074 Z M0.000762033784,0.278781669 C0.000762033784,0.201130154 0.0629947928,0.129843517 0.149358622,0.129843517 L2.28178316,0.129843517 C3.22289488,0.129843517 3.992549,0.873261302 3.992549,1.80126056 C3.992549,2.5204918 3.51373778,3.11242548 2.83171754,3.38611525 L3.90618517,5.36941133 C3.9607976,5.47124938 3.90618517,5.59600099 3.77282926,5.59600099 L3.16066212,5.59600099 C3.09842936,5.59600099 3.05143728,5.55781172 3.03492655,5.52598733 L1.99221032,3.45740189 L0.807247788,3.45740189 L0.807247788,5.44706284 C0.807247788,5.52598733 0.737394691,5.59600099 0.6586512,5.59600099 L0.149358622,5.59600099 C0.0629947928,5.59600099 0.000762033784,5.52598733 0.000762033784,5.44706284 L0.000762033784,0.278781669 Z" id="Fill-1" fill="#117883" mask="url(#mask-2)"></path>
                </g>
                <path d="M8.55421024,34.5744008 C8.55421024,34.4967493 8.616443,34.4267356 8.70407688,34.4267356 L11.8398459,34.4267356 C11.9262097,34.4267356 11.9884425,34.4967493 11.9884425,34.5744008 L11.9884425,35.0110314 C11.9884425,35.0899559 11.9262097,35.1599696 11.8398459,35.1599696 L9.36196605,35.1599696 L9.36196605,36.7524621 L11.4562889,36.7524621 C11.5350324,36.7524621 11.6048855,36.8237488 11.6048855,36.9014003 L11.6048855,37.3380309 C11.6048855,37.4245933 11.5350324,37.4869691 11.4562889,37.4869691 L9.36196605,37.4869691 L9.36196605,39.166024 L11.8398459,39.166024 C11.9262097,39.166024 11.9884425,39.2360376 11.9884425,39.3136891 L11.9884425,39.7439549 C11.9884425,39.8216064 11.9262097,39.8916201 11.8398459,39.8916201 L8.70407688,39.8916201 C8.616443,39.8916201 8.55421024,39.8216064 8.55421024,39.7439549 L8.55421024,34.5744008 Z" id="Fill-4" fill="#117883"></path>
                <path d="M16.1754371,34.6136084 C16.1449558,34.5041325 16.2071885,34.426481 16.3164134,34.426481 L16.8422167,34.426481 C16.9057195,34.426481 16.9679522,34.481219 16.9831929,34.5359569 L17.931925,38.1193834 L17.9636764,38.1193834 L19.2426231,34.4341189 C19.2578638,34.3870188 19.3124762,34.3488295 19.375979,34.3488295 L19.5169553,34.3488295 C19.579188,34.3488295 19.6338004,34.3870188 19.6490411,34.4341189 L20.9432285,38.1193834 L20.9749799,38.1193834 L21.9084713,34.5359569 C21.924982,34.481219 21.9872148,34.426481 22.0494475,34.426481 L22.5752508,34.426481 C22.6857457,34.426481 22.7479785,34.5041325 22.7162271,34.6136084 L21.2340714,39.8595411 C21.2188307,39.9231899 21.1553279,39.97029 21.0930951,39.97029 L20.9673596,39.97029 C20.9127471,39.97029 20.8505144,39.9308277 20.8340036,39.8837276 L19.4534524,36.0036978 L19.4153507,36.0036978 L18.0576606,39.8837276 C18.0424199,39.9308277 17.9801871,39.97029 17.9243046,39.97029 L17.7998391,39.97029 C17.7363363,39.97029 17.6728335,39.9231899 17.6575928,39.8595411 L16.1754371,34.6136084 Z" id="Fill-6" fill="#117883"></path>
                <path d="M29.6074256,38.0334575 L28.6434529,35.8935854 L28.6040811,35.8935854 L27.6464587,38.0334575 L29.6074256,38.0334575 Z M26.0550781,39.6883259 L28.4631049,34.4347553 C28.4859659,34.3876552 28.555819,34.348193 28.5951907,34.348193 L28.6739342,34.348193 C28.713306,34.348193 28.7844291,34.3876552 28.8072901,34.4347553 L31.2000762,39.6883259 C31.2457982,39.7901639 31.1835655,39.892002 31.0654502,39.892002 L30.5713983,39.892002 C30.4786842,39.892002 30.4228017,39.8449019 30.3910503,39.7748882 L29.9058888,38.7055887 L27.3403751,38.7055887 C27.1841582,39.0645678 27.0190508,39.4159091 26.8628339,39.7748882 C26.8387028,39.8283532 26.7764701,39.892002 26.6824859,39.892002 L26.187164,39.892002 C26.0703188,39.892002 26.006816,39.7901639 26.0550781,39.6883259 L26.0550781,39.6883259 Z" id="Fill-8" fill="#117883"></path>
                <path d="M37.5029846,37.0807625 C38.0135473,37.0807625 38.459337,36.6504968 38.459337,36.1120281 C38.459337,35.6053838 38.0135473,35.1827558 37.5029846,35.1827558 L36.1071928,35.1827558 L36.1071928,37.0807625 L37.5029846,37.0807625 Z M35.2841963,34.5742735 C35.2841963,34.496622 35.346429,34.4253353 35.4327929,34.4253353 L37.5652174,34.4253353 C38.5063291,34.4253353 39.2759832,35.1687531 39.2759832,36.0967524 C39.2759832,36.8159836 38.797172,37.4079173 38.1151518,37.6816071 L39.1896194,39.6649031 C39.2442318,39.7667412 39.1896194,39.8914928 39.0562635,39.8914928 L38.4440964,39.8914928 C38.3818636,39.8914928 38.3348715,39.8533035 38.3183608,39.8214791 L37.2756446,37.7528937 L36.090682,37.7528937 L36.090682,39.7425546 C36.090682,39.8214791 36.0208289,39.8914928 35.9420854,39.8914928 L35.4327929,39.8914928 C35.346429,39.8914928 35.2841963,39.8214791 35.2841963,39.7425546 L35.2841963,34.5742735 Z" id="Fill-10" fill="#117883"></path>
                <path d="M45.7512383,39.1498572 C46.9044494,39.1498572 47.7426866,38.3058743 47.7426866,37.1512854 C47.7426866,36.0030614 46.9044494,35.1679893 45.7512383,35.1679893 L44.7161424,35.1679893 L44.7161424,39.1498572 L45.7512383,39.1498572 Z M43.9160069,34.5747827 C43.9160069,34.4958582 43.9782397,34.4258445 44.0569832,34.4258445 L45.8617332,34.4258445 C47.3756403,34.4258445 48.6139452,35.6517201 48.6139452,37.1512854 C48.6139452,38.6661264 47.3756403,39.890729 45.8617332,39.890729 L44.0569832,39.890729 C43.9782397,39.890729 43.9160069,39.8219883 43.9160069,39.7430638 L43.9160069,34.5747827 Z" id="Fill-12" fill="#117883"></path>
                <path d="M52.6820626,39.1030117 C52.7531857,39.0011736 52.8154185,38.8840599 52.8852716,38.7834948 C52.9563947,38.6816567 53.0656196,38.6498323 53.1532535,38.721119 C53.2002455,38.7593082 53.8035223,39.2595877 54.4080691,39.2595877 C54.9491131,39.2595877 55.2932983,38.93116 55.2932983,38.5327186 C55.2932983,38.0642635 54.8856103,37.7676602 54.1096059,37.4481433 C53.3094704,37.1120777 52.6820626,36.6983607 52.6820626,35.792002 C52.6820626,35.1835196 53.1532535,34.3471746 54.3991787,34.3471746 C55.1840735,34.3471746 55.7721096,34.7545268 55.8508531,34.8079918 C55.9130858,34.848727 55.9753186,34.95693 55.8978451,35.0740437 C55.8343423,35.1682439 55.7644892,35.2764468 55.7022565,35.370647 C55.6387537,35.4724851 55.5371491,35.5183122 55.4266542,35.4495715 C55.3720418,35.4177471 54.8221074,35.058768 54.3686973,35.058768 C53.7095381,35.058768 53.482198,35.4724851 53.482198,35.7614506 C53.482198,36.2057191 53.8263833,36.4794088 54.4779222,36.7454608 C55.3885526,37.1120777 56.164557,37.5410705 56.164557,38.4932563 C56.164557,39.3054148 55.4342746,39.9699081 54.4156894,39.9699081 C53.458067,39.9699081 52.8547902,39.4696287 52.7290547,39.3525149 C52.6592016,39.2901391 52.6033191,39.2354011 52.6820626,39.1030117" id="Fill-14" fill="#117883"></path>
                <path d="M26.6347318,10.848935 C26.6347318,10.4161233 27.0271792,10.0265928 27.4628085,10.0265928 L28.8560603,10.0265928 C29.2904195,10.0265928 29.6828669,10.4161233 29.6828669,10.848935 L29.6828669,19.9978111 C29.6828669,23.2922721 31.1637526,24.8962214 33.6022607,24.8962214 C36.9120274,24.8962214 38.7840904,22.4253757 38.7840904,22.4253757 L38.7840904,10.848935 C38.7840904,10.4161233 39.1765378,10.0265928 39.6121671,10.0265928 L40.962237,10.0265928 C41.3978663,10.0265928 41.7903137,10.4161233 41.7903137,10.848935 L41.7903137,26.5434519 C41.7903137,26.9762637 41.3978663,27.3683402 40.962237,27.3683402 L40.1328902,27.3683402 C39.6553491,27.3683402 39.4813513,27.064099 39.3505355,26.6300143 L39.045722,25.5034308 C39.045722,25.5034308 36.9996613,27.7998789 33.3850811,27.7998789 C28.331527,27.7998789 26.6347318,24.5499721 26.6347318,19.953257 L26.6347318,10.848935 Z" id="Fill-16" fill="#117883"></path>
                <path d="M53.3516363,25.0694734 C56.4874053,25.0694734 58.0991067,22.2090971 58.0991067,22.2090971 L58.0991067,13.536314 C58.0991067,13.536314 56.2702256,12.4962928 53.8748995,12.4962928 C50.0863215,12.4962928 48.1698065,15.2268256 48.1698065,18.6969573 C48.1698065,22.0767077 50.1726853,25.0694734 53.3516363,25.0694734 M53.4824521,9.59263537 C56.3565895,9.59263537 58.1422886,10.7192188 58.1422886,10.7192188 L58.1422886,1.59707526 C58.1422886,1.16426354 58.533466,0.77346001 58.9690953,0.77346001 L60.3191651,0.77346001 C60.7547945,0.77346001 61.1472419,1.16426354 61.1472419,1.59707526 L61.1472419,26.5435792 C61.1472419,26.976391 60.7547945,27.3671945 60.3191651,27.3671945 L59.4059947,27.3671945 C59.0135473,27.3671945 58.7519157,27.0629533 58.6642818,26.6734228 L58.4039202,25.5035581 C58.4039202,25.5035581 56.3134076,27.8012792 53.0480928,27.8012792 C48.6067059,27.8012792 45.1216714,23.6386488 45.1216714,18.6536761 C45.1216714,13.5808681 48.2574404,9.59263537 53.4824521,9.59263537" id="Fill-18" fill="#117883"></path>
                <path d="M77.7268109,17.1352707 C77.7268109,14.2748944 75.9855637,12.2801416 73.3717878,12.2801416 C70.7161001,12.2801416 68.7995851,14.2748944 68.7995851,17.1352707 C68.7995851,19.998193 70.7161001,21.9916729 73.3717878,21.9916729 C75.9855637,21.9916729 77.7268109,19.998193 77.7268109,17.1352707 M73.4149697,37.989158 C76.2903772,37.989158 79.2508785,36.3852086 79.2508785,33.8698087 C79.2508785,33.3058805 78.9905169,31.0527136 75.9423818,31.0527136 L71.1072774,31.0527136 C71.1072774,31.0527136 68.1912281,31.8317747 68.1912281,34.3904558 C68.1912281,36.471771 70.4544685,37.989158 73.4149697,37.989158 M67.3618814,21.5575882 C67.3618814,21.5575882 65.9698997,19.7805142 65.9698997,17.2231061 C65.9698997,13.1903192 68.7995851,9.59288997 73.329876,9.59288997 L81.2372465,9.59288997 C81.7173278,9.59288997 82.0653232,9.93913934 82.0653232,10.4165052 L82.0653232,11.1535581 C82.0653232,11.4552534 81.8900555,11.8460569 81.586512,11.890611 L78.6844333,12.3667039 C78.6844333,12.3667039 80.6454003,13.7975286 80.6454003,17.2231061 C80.6454003,21.1667846 77.8144448,24.5923621 73.329876,24.5923621 C70.5421024,24.5923621 69.1907625,23.5090599 69.1907625,23.5090599 C69.1907625,23.5090599 67.2742475,24.3759563 67.2742475,26.1097491 C67.2742475,27.1930514 68.0591423,28.2343455 69.6708437,28.2343455 L75.9423818,28.2343455 C79.5988739,28.2343455 82.4730113,30.0126925 82.4730113,33.7845194 C82.4730113,37.3819486 78.7288853,40.8062531 73.4594217,40.8062531 C67.624783,40.8062531 65.098641,37.6849168 65.098641,34.8245405 C65.098641,32.2225782 67.1891537,31.0527136 67.624783,30.7917536 L67.624783,30.6606371 C66.4918928,30.3589419 64.4458321,29.2310854 64.4458321,26.5438338 C64.4458321,23.2480999 67.3618814,21.5575882 67.3618814,21.5575882" id="Fill-20" fill="#117883"></path>
                <g id="Group-24" transform="translate(83.557004, 9.436823)">
                    <mask id="mask-4" fill="white">
                        <use xlink:href="#path-3"></use>
                    </mask>
                    <g id="Clip-23"></g>
                    <path d="M13.6265611,7.56796759 C13.4957453,5.05384066 11.4052326,2.80067375 8.7495449,2.80067375 C5.83095551,2.80067375 3.56644511,4.88198895 3.2616316,7.56796759 L13.6265611,7.56796759 Z M8.7495449,0.155430328 C13.3217476,0.155430328 16.6302443,3.53772665 16.6302443,8.08988761 C16.6302443,8.39285581 16.5870624,8.95551105 16.5451505,9.25975224 C16.5006985,9.69383693 16.1527031,9.99680514 15.7602557,9.99680514 L3.21844968,9.99680514 C3.39371745,12.9017356 5.96177131,15.6335414 9.05435841,15.6335414 C10.8832395,15.6335414 12.3628551,14.9384966 13.3649295,14.3325602 C13.9745565,13.9850379 14.2361881,13.768632 14.5841836,14.2459979 C14.8458152,14.5922473 15.0629948,14.8952155 15.3246264,15.2427378 C15.6281698,15.6335414 15.8034376,15.8919554 15.1506287,16.3680483 C14.1053723,17.1929365 11.7544981,18.3640741 8.7495449,18.3640741 C3.48008128,18.3640741 0.213496465,14.2459979 0.213496465,9.25975224 C0.213496465,4.36006893 3.48008128,0.155430328 8.7495449,0.155430328 L8.7495449,0.155430328 Z" id="Fill-22" fill="#117883" mask="url(#mask-4)"></path>
                </g>
                <g id="Group-27" transform="translate(0.000000, 0.189928)">
                    <mask id="mask-6" fill="white">
                        <use xlink:href="#path-5"></use>
                    </mask>
                    <g id="Clip-26"></g>
                    <path d="M24.6794801,0.452670144 L20.1072774,0.452670144 C19.6856187,0.452670144 19.3782651,0.796373572 19.3782651,1.17826627 L19.3782651,21.2149031 L19.3007917,21.2149031 L2.29727785,0.425937655 C2.13979086,0.24262916 1.95944287,0.0707774466 1.6330384,0.0707774466 L0.764319885,0.0707774466 C0.379492824,0.0707774466 0.034037509,0.375018629 0.034037509,0.758184302 L0.034037509,26.453198 C0.034037509,26.8350907 0.379492824,27.1775211 0.764319885,27.1775211 L2.38999196,27.1775211 C2.81038059,27.1775211 3.11773422,26.8350907 3.11773422,26.453198 L3.11773422,6.07794958 L3.15710597,6.07794958 L20.4095508,27.131694 C20.661022,27.4359352 20.8210491,27.5594138 21.2274671,27.5594138 L21.8167732,27.5594138 C22.2003302,27.5594138 22.5457855,27.2538997 22.5457855,26.8732799 L22.5457855,3.13355688 L25.0274756,2.75039121 C25.3322891,2.70711003 25.5062868,2.31630651 25.5062868,2.0133383 L25.5062868,1.27501242 C25.5062868,0.798919523 25.1582914,0.452670144 24.6794801,0.452670144" id="Fill-25" fill="#117883" mask="url(#mask-6)"></path>
                </g>
            </g>
        </g>
    </g>
</svg>